<svg width="219" height="144" viewBox="0 0 219 144" fill="none" xmlns="http://www.w3.org/2000/svg">
<path d="M50.5 60L58 66L68.5 72L80.5 60L98.5 45.5H124.5L143 55.5L181 101.5L193 97.5L201 92L203.5 76H188.5L181 80.5L175 88.5L168.5 76L178 69.5L185.5 60L188.5 45.5H172.5L164 51L153 60L150 51L164 33V22L158 14.5L146 22L135.5 40H127L130 17L127 7.5L119 0L111.5 5L106.5 14.5V22V36H98.5L90.5 22L80.5 17H72.5V30.5L77 40L85.5 48.5L80.5 55.5L72.5 48.5L62.5 40H54H47V48.5L50.5 60Z" fill="#FFCE0C"/>
<path d="M5 65.5L0 80.5L2 83L5 90L23.5 94L40 98.5L52.5 103L61 109.5V115V129V140L67 144H79.5L82.5 135V129V115H113.5L127.5 121L133.5 124L136.5 129V135L141 144H157.5V135V124L165.5 115L172 121H203H212.5L219 115V106H212.5H200L186 98.5L179 90L165.5 65.5L157.5 53L150.5 43L136.5 34L117 29L95 34L67 61L52.5 70H46.5L43.5 65.5L33.5 61L23.5 58L16 61H10.5L5 65.5Z" fill="#FF6600"/>
<circle cx="22.5" cy="73.5" r="9" fill="white"/>
<circle cx="22" cy="71" r="6.5" fill="black"/>
</svg>
